# xmcd
# Track frame offsets:
# 150
# 21180
# 35602
# 48747
# 66590
# 79775
# 95340
# 109470
# 122600
# 141955
# 155960
# 174628
# 191470
# 209888
# 227465
# 243550
#
# Disc length: 3420 seconds
# Revision: 0
# Processed by: cddbd v1.5.1PL0 Copyright (c) Steve Scherf et al.
# Submitted via: VisiTrax 2.9.10.228 - For more info visit www.synapsa.com
#
DISCID=f20d5a10
DTITLE=Dobie Gray - Dobie Gray - Drift Away And Other Classics
DYEAR=1900
DGENRE=
TTITLE0=Drift Away
TTITLE1=I Can See Clearly Now
TTITLE2=Cupid
TTITLE3=Wonderful World
TTITLE4=Slip Away
TTITLE5=Got My Heart Set On You
TTITLE6=Ain't That Good News
TTITLE7=The "In" Crowd
TTITLE8=Lean On Me
TTITLE9=Loving Arms
TTITLE10=It's Not Because We Didn't Try
TTITLE11=Slow Rain
TTITLE12=We Had It All
TTITLE13=I'm Only Speaking My Heart
TTITLE14=Until The Dream Becomes Real
TTITLE15=It's Over
EXTD=
EXTT0=
EXTT1=
EXTT2=
EXTT3=
EXTT4=
EXTT5=
EXTT6=
EXTT7=
EXTT8=
EXTT9=
EXTT10=
EXTT11=
EXTT12=
EXTT13=
EXTT14=
EXTT15=
PLAYORDER=
